<svg width="216" height="219" viewBox="0 0 216 219" fill="none" xmlns="http://www.w3.org/2000/svg">
<g opacity="0.8" clip-path="url(#clip0_2234_9590)">
<path d="M34.0829 157.335C35.2502 158.232 35.4507 159.783 34.5507 160.954C33.6506 162.126 32.1002 162.331 30.9329 161.434C29.7656 160.537 29.5651 158.986 30.4652 157.815C31.3652 156.644 33.0129 156.513 34.0829 157.335Z" fill="#FFCF2D"/>
<path d="M47.5082 139.864C48.6755 140.761 48.876 142.312 47.9759 143.484C47.0759 144.655 45.5255 144.86 44.3582 143.963C43.1909 143.066 42.9904 141.515 43.8905 140.344C44.7155 139.27 46.4382 139.042 47.5082 139.864Z" fill="#FFCF2D"/>
<path d="M60.8583 122.492C62.0256 123.389 62.2261 124.94 61.326 126.112C60.426 127.283 58.8756 127.488 57.7083 126.591C56.541 125.694 56.3405 124.143 57.2406 122.972C58.1406 121.801 59.7883 121.67 60.8583 122.492Z" fill="#FFCF2D"/>
<path d="M74.2836 105.022C75.4509 105.92 75.6514 107.471 74.7513 108.642C73.8513 109.813 72.3008 110.019 71.1336 109.122C69.9663 108.225 69.7658 106.673 70.6659 105.502C71.5659 104.331 73.2136 104.2 74.2836 105.022Z" fill="#FFCF2D"/>
<path d="M87.7089 87.5528C88.8762 88.4498 89.0766 90.001 88.1766 91.1721C87.2766 92.3433 85.7261 92.5489 84.5589 91.6518C83.3916 90.7548 83.1911 89.2037 84.0911 88.0325C84.9162 86.9589 86.6389 86.7305 87.7089 87.5528Z" fill="#FFCF2D"/>
<path d="M101.134 70.0831C102.301 70.9801 102.502 72.5312 101.602 73.7024C100.702 74.8736 99.1514 75.0792 97.9841 74.1821C96.8169 73.2851 96.6164 71.7339 97.5164 70.5628C98.4165 69.3916 100.064 69.2608 101.134 70.0831Z" fill="#FFCF2D"/>
<path d="M114.484 52.711C115.652 53.608 115.852 55.1592 114.952 56.3303C114.052 57.5015 112.502 57.7071 111.334 56.81C110.167 55.913 109.967 54.3619 110.867 53.1907C111.767 52.0195 113.414 51.8887 114.484 52.711Z" fill="#FFCF2D"/>
<path d="M127.91 35.2413C129.077 36.1383 129.277 37.6894 128.377 38.8606C127.477 40.0318 125.927 40.2374 124.76 39.3403C123.592 38.4433 123.392 36.8921 124.292 35.721C125.192 34.5498 126.84 34.419 127.91 35.2413Z" fill="#FFCF2D"/>
<path d="M141.335 17.7715C142.502 18.6686 142.703 20.2197 141.803 21.3909C140.903 22.562 139.352 22.7676 138.185 21.8706C137.018 20.9736 136.817 19.4224 137.717 18.2513C138.542 17.1777 140.265 16.9493 141.335 17.7715Z" fill="#FFCF2D"/>
<path d="M48.5766 168.473C49.7439 169.37 49.9443 170.921 49.0443 172.092C48.1443 173.263 46.5938 173.469 45.4265 172.572C44.2593 171.675 44.0588 170.124 44.9588 168.952C45.8588 167.781 47.4093 167.576 48.5766 168.473Z" fill="#FFCF2D"/>
<path d="M62.0019 151.003C63.1692 151.9 63.3696 153.451 62.4696 154.622C61.5696 155.793 60.0191 155.999 58.8518 155.102C57.6845 154.205 57.4841 152.654 58.3841 151.483C59.2091 150.409 60.8346 150.106 62.0019 151.003Z" fill="#FFCF2D"/>
<path d="M75.352 133.631C76.5193 134.528 76.7197 136.079 75.8197 137.25C74.9197 138.421 73.3692 138.627 72.2019 137.73C71.0346 136.833 70.8342 135.282 71.7342 134.111C72.6342 132.939 74.1847 132.734 75.352 133.631Z" fill="#FFCF2D"/>
<path d="M88.7773 116.161C89.9446 117.058 90.145 118.609 89.245 119.781C88.345 120.952 86.7945 121.157 85.6272 120.26C84.4599 119.363 84.2595 117.812 85.1595 116.641C86.0595 115.47 87.61 115.264 88.7773 116.161Z" fill="#FFCF2D"/>
<path d="M102.203 98.6905C103.37 99.5875 103.57 101.139 102.67 102.31C101.77 103.481 100.22 103.687 99.0525 102.79C97.8852 101.893 97.6848 100.341 98.5848 99.1702C99.4098 98.0966 101.035 97.7934 102.203 98.6905Z" fill="#FFCF2D"/>
<path d="M115.628 81.2208C116.795 82.1178 116.996 83.6689 116.096 84.8401C115.196 86.0113 113.645 86.2169 112.478 85.3198C111.311 84.4228 111.11 82.8716 112.01 81.7005C112.91 80.5293 114.461 80.3237 115.628 81.2208Z" fill="#FFCF2D"/>
<path d="M128.978 63.8487C130.145 64.7457 130.346 66.2969 129.446 67.468C128.546 68.6392 126.995 68.8448 125.828 67.9477C124.661 67.0507 124.46 65.4996 125.36 64.3284C126.26 63.1572 127.811 62.9517 128.978 63.8487Z" fill="#FFCF2D"/>
<path d="M142.403 46.3789C143.571 47.276 143.771 48.8271 142.871 49.9983C141.971 51.1695 140.42 51.3751 139.253 50.478C138.086 49.581 137.885 48.0298 138.785 46.8587C139.685 45.6875 141.236 45.4819 142.403 46.3789Z" fill="#FFCF2D"/>
<path d="M155.829 28.9092C156.996 29.8063 157.196 31.3574 156.296 32.5286C155.396 33.6997 153.846 33.9053 152.678 33.0083C151.511 32.1113 151.311 30.5601 152.211 29.3889C153.036 28.3154 154.661 28.0122 155.829 28.9092Z" fill="#FFCF2D"/>
<path d="M5.1928 135.133C6.36008 136.03 6.56053 137.581 5.66052 138.752C4.7605 139.923 3.21003 140.129 2.04274 139.232C0.875462 138.335 0.675012 136.784 1.57503 135.613C2.47504 134.441 4.02552 134.236 5.1928 135.133Z" fill="#FFCF2D"/>
<path d="M18.6181 117.663C19.7854 118.56 19.9858 120.111 19.0858 121.282C18.1858 122.454 16.6353 122.659 15.468 121.762C14.3008 120.865 14.1003 119.314 15.0003 118.143C15.8253 117.069 17.4508 116.766 18.6181 117.663Z" fill="#FFCF2D"/>
<path d="M31.9682 100.291C33.1355 101.188 33.3359 102.739 32.4359 103.91C31.5359 105.082 29.9854 105.287 28.8181 104.39C27.6509 103.493 27.5254 101.844 28.3504 100.771C29.2504 99.5996 30.8009 99.394 31.9682 100.291Z" fill="#FFCF2D"/>
<path d="M45.3935 82.8213C46.5608 83.7184 46.7612 85.2695 45.8612 86.4407C44.9612 87.6118 43.4107 87.8174 42.2434 86.9204C41.0761 86.0234 40.9507 84.3746 41.7757 83.3011C42.6007 82.2275 44.2262 81.9243 45.3935 82.8213Z" fill="#FFCF2D"/>
<path d="M58.8188 65.3516C59.9861 66.2486 60.1865 67.7998 59.2865 68.971C58.3865 70.1421 56.836 70.3477 55.6687 69.4507C54.5014 68.5536 54.301 67.0025 55.201 65.8313C56.026 64.7578 57.6515 64.4546 58.8188 65.3516Z" fill="#FFCF2D"/>
<path d="M72.2441 47.8809C73.4114 48.7779 73.6118 50.3291 72.7118 51.5002C71.8118 52.6714 70.2613 52.877 69.094 51.98C67.9267 51.0829 67.7263 49.5318 68.6263 48.3606C69.5263 47.1895 71.0768 46.9839 72.2441 47.8809Z" fill="#FFCF2D"/>
<path d="M85.5942 30.5088C86.7614 31.4059 86.9619 32.957 86.0619 34.1282C85.1619 35.2993 83.6114 35.5049 82.4441 34.6079C81.2768 33.7109 81.0764 32.1597 81.9764 30.9886C82.8764 29.8174 84.4269 29.6118 85.5942 30.5088Z" fill="#FFCF2D"/>
<path d="M99.0195 13.0391C100.187 13.9361 100.387 15.4873 99.4872 16.6585C98.5872 17.8296 97.0367 18.0352 95.8694 17.1382C94.7021 16.2411 94.5017 14.69 95.4017 13.5188C96.3017 12.3477 97.8522 12.1421 99.0195 13.0391Z" fill="#FFCF2D"/>
<path d="M112.445 -4.4306C113.612 -3.53356 113.812 -1.98243 112.912 -0.811272C112.012 0.359884 110.462 0.565481 109.295 -0.331555C108.127 -1.22859 107.927 -2.77974 108.827 -3.9509C109.652 -5.02446 111.277 -5.32764 112.445 -4.4306Z" fill="#FFCF2D"/>
<path d="M19.6865 146.272C20.8537 147.169 21.0542 148.72 20.1542 149.891C19.2542 151.062 17.6064 151.193 16.5364 150.371C15.3691 149.474 15.1687 147.922 16.0687 146.751C16.9687 145.58 18.5192 145.374 19.6865 146.272Z" fill="#FFCF2D"/>
<path d="M33.1117 128.801C34.279 129.698 34.4795 131.249 33.5795 132.42C32.6794 133.591 31.129 133.797 29.9617 132.9C28.7944 132.003 28.594 130.452 29.494 129.281C30.319 128.207 31.9445 127.904 33.1117 128.801Z" fill="#FFCF2D"/>
<path d="M46.4618 111.429C47.6291 112.326 47.8296 113.877 46.9296 115.048C46.0295 116.219 44.4791 116.425 43.3118 115.528C42.1445 114.631 41.9441 113.08 42.8441 111.908C43.7441 110.737 45.2946 110.532 46.4618 111.429Z" fill="#FFCF2D"/>
<path d="M59.8871 93.959C61.0544 94.8561 61.2549 96.4072 60.3549 97.5784C59.4548 98.7495 57.9044 98.9551 56.7371 98.0581C55.5698 97.1611 55.3693 95.6099 56.2694 94.4387C57.1694 93.2676 58.7199 93.062 59.8871 93.959Z" fill="#FFCF2D"/>
<path d="M73.3124 76.4893C74.4797 77.3863 74.6802 78.9375 73.7801 80.1086C72.8801 81.2798 71.3297 81.4854 70.1624 80.5884C68.9951 79.6913 68.7946 78.1402 69.6947 76.969C70.5197 75.8955 72.1451 75.5923 73.3124 76.4893Z" fill="#FFCF2D"/>
<path d="M86.7377 59.0196C87.905 59.9166 88.1055 61.4678 87.2054 62.6389C86.3054 63.8101 84.7549 64.0157 83.5877 63.1186C82.4204 62.2216 82.2199 60.6705 83.1199 59.4993C84.02 58.3281 85.5704 58.1225 86.7377 59.0196Z" fill="#FFCF2D"/>
<path d="M100.088 41.6475C101.255 42.5445 101.456 44.0957 100.556 45.2669C99.6555 46.438 98.105 46.6436 96.9378 45.7466C95.7705 44.8495 95.57 43.2984 96.47 42.1272C97.3701 40.9561 98.9205 40.7505 100.088 41.6475Z" fill="#FFCF2D"/>
<path d="M113.513 24.1778C114.68 25.0748 114.881 26.626 113.981 27.7971C113.081 28.9683 111.53 29.1739 110.363 28.2768C109.196 27.3798 108.995 25.8287 109.895 24.6575C110.795 23.4863 112.346 23.2807 113.513 24.1778Z" fill="#FFCF2D"/>
<path d="M126.938 6.70806C128.106 7.6051 128.306 9.15623 127.406 10.3274C126.506 11.4986 124.956 11.7042 123.788 10.8071C122.621 9.91008 122.421 8.35893 123.321 7.18777C124.146 6.11421 125.771 5.81102 126.938 6.70806Z" fill="#FFCF2D"/>
<path d="M62.9736 179.536C64.1408 180.433 64.3413 181.984 63.4413 183.156C62.5413 184.327 60.9908 184.532 59.8235 183.635C58.6562 182.738 58.4558 181.187 59.3558 180.016C60.2558 178.845 61.9036 178.714 62.9736 179.536Z" fill="#FFCF2D"/>
<path d="M76.3989 162.066C77.5661 162.963 77.7666 164.515 76.8666 165.686C75.9665 166.857 74.4161 167.063 73.2488 166.166C72.0815 165.268 71.8811 163.717 72.7811 162.546C73.6061 161.473 75.3288 161.244 76.3989 162.066Z" fill="#FFCF2D"/>
<path d="M89.749 144.694C90.9162 145.591 91.1167 147.143 90.2167 148.314C89.3167 149.485 87.7662 149.69 86.5989 148.793C85.4316 147.896 85.2312 146.345 86.1312 145.174C87.0312 144.003 88.6789 143.872 89.749 144.694Z" fill="#FFCF2D"/>
<path d="M103.174 127.225C104.342 128.122 104.542 129.673 103.642 130.844C102.742 132.015 101.191 132.221 100.024 131.324C98.8569 130.427 98.6565 128.876 99.5565 127.704C100.456 126.533 102.104 126.402 103.174 127.225Z" fill="#FFCF2D"/>
<path d="M116.6 109.755C117.767 110.652 117.967 112.203 117.067 113.374C116.167 114.545 114.617 114.751 113.449 113.854C112.282 112.957 112.082 111.406 112.982 110.235C113.807 109.161 115.53 108.933 116.6 109.755Z" fill="#FFCF2D"/>
<path d="M130.025 92.2842C131.192 93.1813 131.393 94.7324 130.493 95.9036C129.593 97.0747 128.042 97.2803 126.875 96.3833C125.707 95.4863 125.507 93.9351 126.407 92.7639C127.307 91.5928 128.955 91.4619 130.025 92.2842Z" fill="#FFCF2D"/>
<path d="M143.375 74.9121C144.542 75.8092 144.743 77.3603 143.843 78.5315C142.943 79.7027 141.392 79.9083 140.225 79.0112C139.058 78.1142 138.857 76.563 139.757 75.3919C140.657 74.2207 142.305 74.0899 143.375 74.9121Z" fill="#FFCF2D"/>
<path d="M156.8 57.4424C157.968 58.3395 158.168 59.8906 157.268 61.0618C156.368 62.2329 154.817 62.4385 153.65 61.5415C152.483 60.6445 152.282 59.0933 153.182 57.9221C154.082 56.751 155.73 56.6201 156.8 57.4424Z" fill="#FFCF2D"/>
<path d="M170.226 39.9727C171.393 40.8697 171.593 42.4209 170.693 43.592C169.793 44.7632 168.243 44.9688 167.075 44.0718C165.908 43.1747 165.708 41.6236 166.608 40.4524C167.433 39.3789 169.155 39.1504 170.226 39.9727Z" fill="#FFCF2D"/>
<path d="M77.4672 190.674C78.6345 191.571 78.8349 193.122 77.9349 194.293C77.0349 195.464 75.4844 195.67 74.3172 194.773C73.1499 193.876 72.9494 192.325 73.8494 191.154C74.7495 189.982 76.2999 189.777 77.4672 190.674Z" fill="#FFCF2D"/>
<path d="M90.8925 173.204C92.0598 174.101 92.2602 175.652 91.3602 176.823C90.4602 177.995 88.9097 178.2 87.7424 177.303C86.5752 176.406 86.3747 174.855 87.2747 173.684C88.0998 172.61 89.7252 172.307 90.8925 173.204Z" fill="#FFCF2D"/>
<path d="M104.243 155.832C105.41 156.729 105.61 158.28 104.71 159.451C103.81 160.623 102.26 160.828 101.093 159.931C99.9253 159.034 99.7248 157.483 100.625 156.312C101.525 155.141 103.075 154.935 104.243 155.832Z" fill="#FFCF2D"/>
<path d="M118.136 141.982C119.005 140.85 118.796 139.229 117.668 138.362C116.54 137.495 114.92 137.71 114.05 138.842C113.18 139.974 113.39 141.594 114.518 142.461C115.646 143.328 117.266 143.114 118.136 141.982Z" fill="#FFCF2D"/>
<path d="M131.093 120.893C132.26 121.79 132.461 123.341 131.561 124.512C130.661 125.683 129.11 125.889 127.943 124.992C126.776 124.095 126.575 122.544 127.475 121.372C128.3 120.299 129.926 119.996 131.093 120.893Z" fill="#FFCF2D"/>
<path d="M144.518 103.423C145.686 104.32 145.886 105.871 144.986 107.042C144.086 108.213 142.536 108.419 141.368 107.522C140.201 106.625 140.001 105.074 140.901 103.903C141.801 102.731 143.351 102.526 144.518 103.423Z" fill="#FFCF2D"/>
<path d="M157.869 86.0508C159.036 86.9479 159.236 88.499 158.336 89.6702C157.436 90.8413 155.886 91.0469 154.719 90.1499C153.551 89.2529 153.351 87.7017 154.251 86.5305C155.151 85.3594 156.701 85.1538 157.869 86.0508Z" fill="#FFCF2D"/>
<path d="M171.762 72.2004C172.631 71.0685 172.422 69.4481 171.294 68.5811C170.166 67.7141 168.546 67.9289 167.676 69.0608C166.806 70.1927 167.016 71.8132 168.144 72.6802C169.272 73.5471 170.892 73.3324 171.762 72.2004Z" fill="#FFCF2D"/>
<path d="M184.719 51.1114C185.886 52.0084 186.087 53.5595 185.187 54.7307C184.287 55.9019 182.736 56.1075 181.569 55.2104C180.402 54.3134 180.201 52.7622 181.101 51.5911C181.926 50.5175 183.552 50.2143 184.719 51.1114Z" fill="#FFCF2D"/>
<path d="M91.9609 201.813C93.1282 202.71 93.3286 204.261 92.4286 205.432C91.5286 206.603 89.9781 206.809 88.8108 205.912C87.6435 205.015 87.4431 203.463 88.3431 202.292C89.2431 201.121 90.7936 200.916 91.9609 201.813Z" fill="#FFCF2D"/>
<path d="M105.386 184.343C106.553 185.24 106.754 186.791 105.854 187.962C104.954 189.133 103.403 189.339 102.236 188.442C101.069 187.545 100.868 185.994 101.768 184.823C102.593 183.749 104.219 183.446 105.386 184.343Z" fill="#FFCF2D"/>
<path d="M118.736 166.971C119.904 167.868 120.104 169.419 119.204 170.59C118.304 171.761 116.753 171.967 115.586 171.07C114.419 170.173 114.218 168.622 115.118 167.45C116.018 166.279 117.569 166.074 118.736 166.971Z" fill="#FFCF2D"/>
<path d="M132.162 149.501C133.329 150.398 133.529 151.949 132.629 153.12C131.729 154.292 130.179 154.497 129.012 153.6C127.844 152.703 127.644 151.152 128.544 149.981C129.444 148.81 130.994 148.604 132.162 149.501Z" fill="#FFCF2D"/>
<path d="M145.587 132.031C146.754 132.928 146.955 134.479 146.055 135.651C145.155 136.822 143.604 137.027 142.437 136.13C141.27 135.233 141.069 133.682 141.969 132.511C142.794 131.437 144.42 131.134 145.587 132.031Z" fill="#FFCF2D"/>
<path d="M159.012 114.561C160.179 115.458 160.38 117.009 159.48 118.18C158.58 119.351 157.029 119.557 155.862 118.66C154.695 117.763 154.494 116.211 155.394 115.04C156.294 113.869 157.845 113.664 159.012 114.561Z" fill="#FFCF2D"/>
<path d="M172.362 97.1885C173.53 98.0856 173.73 99.6367 172.83 100.808C171.93 101.979 170.379 102.185 169.212 101.288C168.045 100.391 167.844 98.8394 168.744 97.6682C169.644 96.4971 171.195 96.2915 172.362 97.1885Z" fill="#FFCF2D"/>
<path d="M185.788 79.7188C186.955 80.6158 187.155 82.167 186.255 83.3381C185.355 84.5093 183.805 84.7149 182.637 83.8179C181.47 82.9208 181.27 81.3697 182.17 80.1985C183.07 79.0274 184.62 78.8218 185.788 79.7188Z" fill="#FFCF2D"/>
<path d="M199.213 62.2491C200.38 63.1461 200.581 64.6973 199.681 65.8684C198.781 67.0396 197.23 67.2452 196.063 66.3481C194.895 65.4511 194.695 63.8999 195.595 62.7288C196.42 61.6552 198.046 61.352 199.213 62.2491Z" fill="#FFCF2D"/>
<path d="M106.357 212.876C107.525 213.773 107.725 215.324 106.825 216.495C105.925 217.667 104.375 217.872 103.207 216.975C102.04 216.078 101.84 214.527 102.74 213.356C103.64 212.185 105.287 212.054 106.357 212.876Z" fill="#FFCF2D"/>
<path d="M119.783 195.406C120.95 196.303 121.15 197.854 120.25 199.026C119.35 200.197 117.8 200.402 116.633 199.505C115.465 198.608 115.265 197.057 116.165 195.886C116.99 194.812 118.713 194.584 119.783 195.406Z" fill="#FFCF2D"/>
<path d="M133.133 178.034C134.3 178.931 134.5 180.482 133.6 181.654C132.7 182.825 131.15 183.03 129.983 182.133C128.815 181.236 128.615 179.685 129.515 178.514C130.415 177.343 132.063 177.212 133.133 178.034Z" fill="#FFCF2D"/>
<path d="M146.558 160.564C147.725 161.462 147.926 163.013 147.026 164.184C146.126 165.355 144.575 165.561 143.408 164.664C142.241 163.767 142.04 162.215 142.94 161.044C143.84 159.873 145.488 159.742 146.558 160.564Z" fill="#FFCF2D"/>
<path d="M159.983 143.094C161.151 143.991 161.351 145.542 160.451 146.713C159.551 147.884 158.001 148.09 156.833 147.193C155.666 146.296 155.466 144.745 156.366 143.574C157.191 142.5 158.913 142.272 159.983 143.094Z" fill="#FFCF2D"/>
<path d="M173.409 125.624C174.576 126.521 174.776 128.072 173.876 129.243C172.976 130.415 171.426 130.62 170.259 129.723C169.091 128.826 168.891 127.275 169.791 126.104C170.691 124.933 172.339 124.802 173.409 125.624Z" fill="#FFCF2D"/>
<path d="M186.759 108.252C187.926 109.149 188.126 110.7 187.226 111.871C186.326 113.042 184.776 113.248 183.609 112.351C182.441 111.454 182.241 109.903 183.141 108.732C184.041 107.561 185.689 107.43 186.759 108.252Z" fill="#FFCF2D"/>
<path d="M200.184 90.7823C201.351 91.6793 201.552 93.2305 200.652 94.4016C199.752 95.5728 198.201 95.7784 197.034 94.8813C195.867 93.9843 195.666 92.4332 196.566 91.262C197.466 90.0908 199.114 89.96 200.184 90.7823Z" fill="#FFCF2D"/>
<path d="M213.609 73.3126C214.777 74.2096 214.977 75.7607 214.077 76.9319C213.177 78.103 211.627 78.3086 210.459 77.4116C209.292 76.5146 209.092 74.9634 209.992 73.7923C210.817 72.7187 212.539 72.4903 213.609 73.3126Z" fill="#FFCF2D"/>
</g>
<defs>
<clipPath id="clip0_2234_9590">
<rect width="181.184" height="132.739" fill="white" transform="translate(0 137.662) rotate(-52.4584)"/>
</clipPath>
</defs>
</svg>
